<svg width="14" height="14" viewBox="0 0 14 14" fill="none" xmlns="http://www.w3.org/2000/svg">
<path fill-rule="evenodd" clip-rule="evenodd" d="M0.333496 6.99967C0.333496 3.31778 3.31826 0.333008 7.00016 0.333008C8.76827 0.333008 10.464 1.03539 11.7142 2.28563C12.9644 3.53587 13.6668 5.23156 13.6668 6.99967C13.6668 10.6816 10.6821 13.6663 7.00016 13.6663C3.31826 13.6663 0.333496 10.6816 0.333496 6.99967ZM7.66683 11.6663V12.2863C10.0803 11.9803 11.9808 10.0798 12.2868 7.66634H11.6668C11.2986 7.66634 11.0002 7.36786 11.0002 6.99967C11.0002 6.63148 11.2986 6.33301 11.6668 6.33301H12.2868C11.9808 3.91955 10.0803 2.01906 7.66683 1.71301V2.33301C7.66683 2.7012 7.36835 2.99967 7.00016 2.99967C6.63197 2.99967 6.3335 2.7012 6.3335 2.33301V1.71301C3.92004 2.01906 2.01955 3.91955 1.7135 6.33301H2.3335C2.70169 6.33301 3.00016 6.63148 3.00016 6.99967C3.00016 7.36786 2.70169 7.66634 2.3335 7.66634H1.7135C2.01955 10.0798 3.92004 11.9803 6.3335 12.2863V11.6663C6.3335 11.2982 6.63197 10.9997 7.00016 10.9997C7.36835 10.9997 7.66683 11.2982 7.66683 11.6663ZM9.0935 4.03301L5.76016 5.44634C5.60477 5.51367 5.48083 5.63762 5.4135 5.79301L4.00016 9.12634C3.89275 9.37644 3.94816 9.66673 4.14016 9.85967C4.26325 9.98528 4.43098 10.0572 4.60683 10.0597C4.69907 10.0598 4.79018 10.0393 4.8735 9.99967L8.20683 8.58634C8.36222 8.51901 8.48617 8.39507 8.5535 8.23967L9.96683 4.90634C10.0722 4.65646 10.0157 4.36764 9.82396 4.17588C9.6322 3.98411 9.34338 3.92762 9.0935 4.03301ZM5.9135 8.09967L7.4335 7.43301L8.10016 5.91301L6.58016 6.57967L5.9135 8.09967Z" fill="#212121"/>
</svg>
