<svg width="12" height="16" viewBox="0 0 12 16" fill="none" xmlns="http://www.w3.org/2000/svg">
<path fill-rule="evenodd" clip-rule="evenodd" d="M0.222168 6.63911C0.222168 3.44813 2.80897 0.861328 5.99995 0.861328C9.19092 0.861328 11.7777 3.44813 11.7777 6.63911C11.7777 10.5391 6.72217 14.9447 6.46939 15.1324C6.19912 15.3636 5.80077 15.3636 5.5305 15.1324L5.5293 15.1314C5.2958 14.929 0.222168 10.5322 0.222168 6.63911ZM1.66661 6.63911C1.66661 9.05133 4.46161 12.1641 5.99995 13.6086C7.53828 12.1713 10.3333 9.05133 10.3333 6.63911C10.3333 4.24587 8.39318 2.30577 5.99995 2.30577C3.60671 2.30577 1.66661 4.24587 1.66661 6.63911ZM5.99995 3.75022C4.40446 3.75022 3.11106 5.04362 3.11106 6.63911C3.11106 8.2346 4.40446 9.52799 5.99995 9.52799C7.59544 9.52799 8.88883 8.2346 8.88883 6.63911C8.88883 5.04362 7.59544 3.75022 5.99995 3.75022ZM4.5555 6.63911C4.5555 7.43685 5.2022 8.08355 5.99995 8.08355C6.79769 8.08355 7.44439 7.43685 7.44439 6.63911C7.44439 5.84136 6.79769 5.19466 5.99995 5.19466C5.2022 5.19466 4.5555 5.84136 4.5555 6.63911Z" fill="#212121"/>
</svg>
