<svg width="14" height="12" viewBox="0 0 14 12" fill="none" xmlns="http://www.w3.org/2000/svg">
<path fill-rule="evenodd" clip-rule="evenodd" d="M11.6668 0.666992H2.3335C1.22893 0.666992 0.333496 1.56242 0.333496 2.66699V9.33366C0.333496 10.4382 1.22893 11.3337 2.3335 11.3337H11.6668C12.7714 11.3337 13.6668 10.4382 13.6668 9.33366V2.66699C13.6668 1.56242 12.7714 0.666992 11.6668 0.666992ZM11.3935 2.00033L7.4735 5.92033C7.34832 6.04653 7.17792 6.11752 7.00016 6.11752C6.8224 6.11752 6.65201 6.04653 6.52683 5.92033L2.60683 2.00033H11.3935ZM11.6668 10.0003C12.035 10.0003 12.3335 9.70185 12.3335 9.33366V2.94033L8.4135 6.86033C7.63265 7.6402 6.36768 7.6402 5.58683 6.86033L1.66683 2.94033V9.33366C1.66683 9.70185 1.96531 10.0003 2.3335 10.0003H11.6668Z" fill="#212121"/>
</svg>
