<svg width="14" height="14" viewBox="0 0 14 14" fill="none" xmlns="http://www.w3.org/2000/svg">
<path fill-rule="evenodd" clip-rule="evenodd" d="M11.6049 7.60806C11.7231 7.63686 11.8437 7.66626 11.9601 7.66626C12.9002 7.83484 13.5899 8.64463 13.6067 9.59959V11.5996C13.6094 12.1719 13.3667 12.718 12.9401 13.0996C12.573 13.4266 12.0984 13.607 11.6067 13.6063H11.3534C5.60529 12.8965 1.0707 8.37843 0.34008 2.63292C0.260596 2.05698 0.435669 1.47496 0.8197 1.03844C1.20373 0.601928 1.75871 0.354131 2.34008 0.359589H4.34008C5.32444 0.345277 6.17283 1.04944 6.34008 2.01959C6.36008 2.17292 6.38675 2.32626 6.42008 2.47292C6.48737 2.76945 6.57423 3.0612 6.68008 3.34626C6.91309 3.98676 6.62555 4.69987 6.01341 4.99959L5.73341 5.18626C6.09463 5.83559 6.54326 6.43227 7.06675 6.95959C7.59407 7.48308 8.19075 7.93171 8.84008 8.29292L8.98675 7.99292C9.28646 7.38079 9.99958 7.09324 10.6401 7.32626C10.9245 7.43391 11.2164 7.52081 11.5134 7.58626C11.5437 7.59313 11.5742 7.60058 11.6049 7.60806ZM12.0667 12.1663C12.2106 12.0399 12.2932 11.8577 12.2934 11.6663L12.2801 9.58626C12.2872 9.26646 12.0662 8.98668 11.7534 8.91959C11.5712 8.89292 11.3912 8.85959 11.2134 8.81959C10.8565 8.73858 10.5047 8.63617 10.1601 8.51292L9.74675 9.44626C9.67155 9.60799 9.53469 9.73285 9.36675 9.79292C9.20444 9.8596 9.02239 9.8596 8.86008 9.79292C6.80491 8.83346 5.15288 7.18143 4.19341 5.12626C4.11874 4.96541 4.11122 4.78145 4.17253 4.61505C4.23383 4.44866 4.3589 4.31354 4.52008 4.23959L5.45341 3.80626C5.32625 3.46971 5.22376 3.12435 5.14675 2.77292C5.10675 2.59514 5.07341 2.41514 5.04675 2.23292C4.97965 1.92016 4.69988 1.69914 4.38008 1.70626H2.38008C2.1886 1.7065 2.00646 1.78907 1.88008 1.93292C1.75219 2.08473 1.69197 2.28225 1.71341 2.47959C2.34756 7.61864 6.3841 11.6744 11.5201 12.3329C11.7176 12.3568 11.9161 12.2963 12.0667 12.1663Z" fill="#212121"/>
</svg>
